<?xml version="1.0" encoding="UTF-8"?><svg width="64px" height="64px" viewBox="0 0 24 24" stroke-width="1.5" fill="none" xmlns="http://www.w3.org/2000/svg" color="#404ab5"><path d="M20 12V5.749a.6.6 0 00-.176-.425l-3.148-3.148A.6.6 0 0016.252 2H4.6a.6.6 0 00-.6.6v18.8a.6.6 0 00.6.6H11M8 10h8M8 6h4m-4 8h3M20.5 20.5L22 22" stroke="#404ab5" stroke-width="1.5" stroke-linecap="round" stroke-linejoin="round"></path><path d="M15 18a3 3 0 106 0 3 3 0 00-6 0zM16 2v3.4a.6.6 0 00.6.6H20" stroke="#404ab5" stroke-width="1.5" stroke-linecap="round" stroke-linejoin="round"></path></svg>