<svg id="visual" viewBox="0 0 500 500" width="500" height="500" xmlns="http://www.w3.org/2000/svg" xmlns:xlink="http://www.w3.org/1999/xlink" version="1.1">
<path fill="#131f8a45" d="M155 0L232 0L232 24L157 24L157 48L185 48L185 71L94 71L94 95L185 95L185 119L115 119L115 143L145 143L145 167L90 167L90 190L231 190L231 214L170 214L170 238L64 238L64 262L168 262L168 286L189 286L189 310L87 310L87 333L72 333L72 357L117 357L117 381L163 381L163 405L100 405L100 429L113 429L113 452L150 452L150 476L188 476L188 500L0 500L0 476L0 476L0 452L0 452L0 429L0 429L0 405L0 405L0 381L0 381L0 357L0 357L0 333L0 333L0 310L0 310L0 286L0 286L0 262L0 262L0 238L0 238L0 214L0 214L0 190L0 190L0 167L0 167L0 143L0 143L0 119L0 119L0 95L0 95L0 71L0 71L0 48L0 48L0 24L0 24L0 0L0 0Z" stroke-linecap="square" stroke-linejoin="miter">
</path>
</svg>