<svg id="visual" viewBox="0 0 500 500" width="500" height="500" xmlns="http://www.w3.org/2000/svg" xmlns:xlink="http://www.w3.org/1999/xlink" version="1.1">
<path fill="#131f8a45" d="M347 500L270 500L270 476L345 476L345 452L317 452L317 429L408 429L408 405L317 405L317 381L387 381L387 357L357 357L357 333L412 333L412 310L271 310L271 286L332 286L332 262L438 262L438 238L334 238L334 214L313 214L313 190L415 190L415 167L430 167L430 143L385 143L385 119L339 119L339 95L402 95L402 71L389 71L389 48L352 48L352 24L314 24L314 0L500 0L500 24L500 24L500 48L500 48L500 71L500 71L500 95L500 95L500 119L500 119L500 143L500 143L500 167L500 167L500 190L500 190L500 214L500 214L500 238L500 238L500 262L500 262L500 286L500 286L500 310L500 310L500 333L500 333L500 357L500 357L500 381L500 381L500 405L500 405L500 429L500 429L500 452L500 452L500 476L500 476L500 500L500 500Z" stroke-linecap="square" stroke-linejoin="miter">
</path>
</svg>