<svg id="visual" viewBox="0 0 500 500" width="500" height="500" xmlns="http://www.w3.org/2000/svg" xmlns:xlink="http://www.w3.org/1999/xlink" version="1.1">
<g transform="translate(258.277448204616 278.10759102237955)">
<path d="M51.7 -73.4C72.5 -56.1 98.5 -48.3 115.4 -29.7C132.2 -11 139.8 18.4 130.3 40.7C120.8 62.9 94.2 78 69.6 77.8C45.1 77.7 22.5 62.3 5.7 54.4C-11.2 46.6 -22.3 46.4 -52.1 48.2C-81.8 50.1 -130 54 -145.2 39.6C-160.4 25.1 -142.5 -7.7 -128.5 -38.9C-114.4 -70.1 -104.2 -99.8 -83.5 -117C-62.7 -134.3 -31.3 -139.1 -7.9 -128.2C15.5 -117.3 31 -90.6 51.7 -73.4" fill="#001122">
</path>
</g>
</svg>